<svg class="img-fluid" id="outputsvg" xmlns="http://www.w3.org/2000/svg"
    style="transform: matrix(1.01591, 0, 0, 1.01591, 0, 0); transform-origin: 50% 50% 0px; cursor: move; transition: transform 200ms ease-in-out;"
    width="500" height="500" viewBox="0 0 5000 5000">
    <g id="l68au7SReQVPn9o1CCNXvX6" fill="rgb(255,255,255)" style="transform: none;">
        <g style="transform: none;">
            <path id="pvzyjldft"
                d="M1872 3942 c-61 -22 -119 -66 -144 -108 -21 -37 -27 -96 -10 -101 7 -3 12 5 12 22 0 89 130 184 235 172 55 -6 59 -9 51 -42 -9 -35 -55 -61 -122 -69 -54 -6 -106 -26 -129 -50 -59 -58 -31 -115 57 -116 14 0 39 -11 55 -24 70 -58 154 -79 217 -52 21 9 40 25 43 36 3 11 9 17 14 15 11 -7 29 28 29 57 0 13 -9 38 -20 56 -11 18 -20 34 -20 36 0 17 342 46 465 39 238 -13 377 -35 538 -84 141 -43 248 -107 247 -148 -1 -53 -95 -103 -252 -136 -126 -26 -134 -24 -206 50 -36 37 -86 75 -118 91 -176 86 -512 68 -642 -35 -234 -186 -389 -528 -409 -907 -7 -145 -1 -183 35 -219 57 -58 209 -111 392 -136 52 -7 97 -14 99 -15 2 -2 -3 -14 -12 -27 -24 -36 -57 -146 -57 -186 0 -47 24 -124 54 -175 28 -48 133 -151 224 -220 117 -89 180 -155 213 -221 29 -58 31 -71 28 -144 -4 -69 -8 -85 -34 -122 -17 -24 -53 -57 -80 -74 -43 -26 -57 -30 -124 -30 -70 0 -80 3 -124 33 -65 45 -87 84 -87 151 0 68 26 113 84 140 52 26 57 26 105 1 42 -21 51 -35 51 -85 0 -25 -7 -38 -27 -53 -31 -22 -27 -38 7 -27 30 10 54 65 46 107 -15 83 -122 124 -203 79 -120 -68 -123 -238 -5 -328 49 -37 131 -57 196 -48 97 15 192 98 217 189 17 61 5 165 -25 225 -36 71 -74 111 -206 216 -134 107 -218 193 -251 255 -20 37 -24 60 -24 130 0 75 4 93 31 149 l31 64 79 -2 c43 -1 80 -4 82 -6 2 -2 -10 -22 -28 -46 -17 -23 -37 -67 -46 -96 -14 -48 -14 -58 0 -107 24 -81 72 -124 222 -197 141 -70 185 -103 215 -162 21 -40 22 -99 4 -171 -12 -43 14 -29 49 27 59 96 42 207 -46 297 -27 26 -93 76 -147 110 -115 72 -151 106 -160 151 -8 41 -31 51 -31 14 0 -62 48 -113 179 -189 96 -57 173 -128 195 -181 9 -21 16 -63 15 -94 l0 -56 -13 45 c-28 105 -78 153 -237 228 -181 86 -222 129 -222 233 0 59 23 113 75 170 22 26 28 27 168 33 342 16 610 104 610 201 0 33 -48 85 -108 118 -167 91 -519 142 -820 118 -254 -20 -405 -55 -508 -117 l-54 -33 0 72 c1 172 53 383 141 562 57 118 121 205 216 297 60 57 79 69 144 90 64 20 94 23 229 23 155 0 218 -9 285 -43 42 -21 101 -70 130 -108 l24 -32 -157 53 c-171 57 -311 91 -337 81 -24 -9 -8 -26 26 -26 36 0 195 -42 304 -80 547 -190 809 -389 831 -631 12 -131 -39 -212 -150 -239 -100 -24 -201 15 -290 110 -113 123 -220 447 -176 531 14 25 64 25 87 0 25 -27 88 -189 113 -291 12 -47 26 -103 33 -125 34 -121 132 -177 229 -131 77 37 88 141 28 263 -57 115 -205 239 -363 304 -84 35 -107 36 -134 7 -43 -46 -38 -142 14 -298 89 -264 225 -400 402 -400 109 0 176 39 216 125 38 81 29 184 -24 295 -33 70 -144 183 -241 247 -63 42 -290 158 -340 175 -8 3 8 9 35 13 191 27 342 95 346 154 4 57 -6 71 -83 121 -192 125 -713 195 -1073 145 -173 -25 -174 -25 -130 -77 18 -21 25 -41 25 -70 l0 -40 -29 31 c-16 17 -38 31 -50 31 -12 0 -24 0 -28 1 -4 0 -9 -4 -11 -10 -2 -6 5 -11 15 -11 27 0 63 -28 63 -50 0 -46 -89 -53 -168 -14 -53 26 -67 44 -34 44 59 0 172 120 172 182 0 42 -16 34 -30 -17 -23 -82 -118 -146 -218 -148 -57 -1 -73 10 -64 45 7 30 56 55 130 68 82 14 117 32 137 70 20 38 19 53 -3 73 -29 27 -99 30 -160 9z m1330 -761 c188 -104 308 -253 308 -382 0 -101 -73 -143 -168 -96 -35 17 -67 81 -92 182 -24 97 -53 192 -75 240 -22 49 -35 85 -30 85 2 0 28 -13 57 -29z m-447 -505 c146 -19 200 -30 292 -61 124 -42 203 -95 203 -138 0 -53 -143 -116 -355 -156 -47 -9 -281 -31 -326 -31 -17 0 -9 14 30 58 38 40 42 42 99 42 57 0 212 21 282 38 53 13 130 50 130 61 0 15 -16 14 -50 -4 -46 -24 -135 -44 -265 -60 -153 -19 -148 -19 -135 4 5 11 10 41 10 67 0 40 -5 51 -34 78 -47 45 -95 56 -242 56 -269 -1 -481 -62 -455 -131 9 -25 61 -56 119 -70 76 -19 209 -39 260 -39 28 0 52 -3 52 -6 0 -3 -14 -22 -31 -43 -29 -36 -33 -38 -77 -34 -246 21 -472 109 -472 183 0 57 131 128 295 162 184 37 483 48 670 24z m-231 -78 c41 -8 68 -20 92 -43 38 -36 43 -68 19 -115 -15 -30 -17 -30 -100 -30 -47 0 -85 3 -84 8 0 4 20 23 44 42 38 30 57 60 39 60 -8 0 -50 -33 -97 -77 l-39 -35 -111 12 c-181 19 -304 50 -323 82 -20 31 83 68 261 93 118 17 228 18 299 3z m26 -263 c-34 -34 -52 -45 -76 -45 -46 0 -124 12 -124 19 0 3 14 21 31 39 30 32 31 32 122 32 l91 0 -44 -45z">
            </path>
            <path id="pvVZd1Pzi"
                d="M1421 3686 c-43 -15 -75 -56 -67 -83 4 -11 21 -28 40 -38 27 -15 44 -17 92 -10 99 14 140 11 163 -9 61 -55 -107 -101 -205 -57 -22 10 -52 34 -67 52 -31 39 -45 34 -23 -9 44 -84 211 -117 298 -58 56 37 48 83 -20 112 -31 12 -44 12 -106 -1 -73 -14 -111 -11 -133 11 -31 31 -5 56 75 73 70 15 175 -24 203 -76 14 -27 29 -30 29 -6 0 25 -72 87 -117 101 -50 15 -117 14 -162 -2z">
            </path>
            <path id="p11h93Sqdk"
                d="M1744 3456 c-77 -34 -134 -115 -120 -172 5 -20 13 -24 42 -24 37 0 44 5 139 113 32 36 71 35 67 -3 -4 -33 -25 -63 -69 -97 -29 -23 -47 -28 -90 -28 -58 0 -67 -9 -28 -27 28 -13 89 1 133 30 40 26 82 91 82 127 0 89 -95 65 -160 -40 -20 -32 -53 -55 -81 -55 -16 0 -10 54 11 88 28 46 115 85 167 77 36 -6 37 -5 19 9 -24 19 -70 20 -112 2z">
            </path>
            <path id="pyBlkNWTd"
                d="M2839 2186 c-43 -14 -49 -48 -17 -95 26 -38 30 -41 110 -75 86 -37 119 -116 48 -116 -40 0 -98 30 -138 71 -33 34 -68 119 -58 144 3 8 1 17 -3 20 -5 3 -12 -2 -15 -11 -35 -92 85 -242 197 -246 58 -2 77 10 77 47 0 47 -47 98 -111 121 -107 39 -138 137 -36 117 85 -17 167 -109 167 -190 0 -24 5 -43 10 -43 6 0 10 23 10 52 0 120 -138 237 -241 204z">
            </path>
            <path id="pMbcTij2l"
                d="M2175 1738 c-84 -29 -146 -141 -119 -212 18 -46 115 9 127 72 8 38 53 92 78 92 42 0 12 -104 -45 -154 -26 -23 -60 -36 -92 -36 -13 0 -24 -4 -24 -10 0 -5 16 -10 35 -10 94 0 175 97 163 196 -2 24 -8 29 -34 32 -42 4 -76 -28 -103 -99 -31 -78 -91 -104 -91 -39 1 31 39 98 68 119 17 11 45 24 64 27 58 10 65 14 48 24 -19 12 -37 11 -75 -2z">
            </path>
        </g>
    </g>
</svg>