<svg class="img-fluid" id="outputsvg" xmlns="http://www.w3.org/2000/svg"
    style="transform: matrix(1.11388, 0, 0, 1.11388, 0, 0); transform-origin: 50% 50% 0px; cursor: move; transition: transform 200ms ease-in-out;"
    width="1024" height="1024" viewBox="0 0 10240 10240">

    <g id="l4ftL68mj1hCwtcquWK4Q21" fill="rgb(164,155,149)" style="transform: none;">
        <g style="transform: none;">
            <path id="plbvUw8L5"
                d="M2055 9208 c-26 -15 -35 -28 -35 -56 0 -38 316 -665 477 -946 53 -93 57 -73 -57 -256 -288 -463 -422 -737 -559 -1146 -58 -173 -161 -559 -161 -603 0 -35 26 -24 53 22 14 23 90 137 169 252 222 323 334 523 432 772 58 150 125 386 162 578 19 99 37 191 40 204 4 19 18 0 76 -100 113 -195 128 -223 128 -237 0 -8 -22 -46 -48 -85 -195 -290 -480 -808 -628 -1140 -233 -522 -367 -1037 -419 -1604 -6 -58 -4 -73 7 -73 16 0 7 -13 140 215 221 379 313 555 456 870 159 353 235 555 328 875 45 154 182 693 204 803 6 31 13 57 15 57 8 0 275 -440 275 -454 0 -9 -22 -51 -48 -94 -27 -42 -87 -138 -134 -212 -188 -300 -430 -737 -567 -1021 -177 -369 -325 -805 -425 -1249 -45 -203 -86 -424 -86 -467 0 -51 33 -15 142 155 582 898 820 1383 1014 2065 51 178 113 449 139 607 10 58 21 111 25 118 4 9 20 -7 47 -50 23 -35 81 -123 131 -195 l90 -133 -153 -306 c-341 -682 -485 -1043 -595 -1487 -84 -340 -122 -633 -140 -1067 -14 -341 -11 -464 11 -468 11 -2 33 37 82 150 257 597 462 1188 597 1727 68 273 140 653 223 1168 l32 202 140 -196 c77 -108 142 -200 143 -205 2 -5 -28 -71 -66 -146 -215 -419 -377 -840 -456 -1182 -101 -439 -158 -959 -160 -1475 -1 -240 1 -270 15 -273 41 -8 308 695 438 1153 143 502 256 1177 278 1655 3 80 9 153 12 163 7 17 36 -18 313 -378 17 -22 16 -26 -23 -136 -53 -147 -208 -624 -248 -759 -176 -607 -255 -1229 -266 -2105 l-5 -380 42 85 c24 47 55 112 69 145 l25 60 7 -170 c4 -93 18 -244 32 -335 14 -91 25 -166 25 -167 0 -2 4 -3 9 -3 4 0 16 51 25 113 61 401 143 623 338 908 155 226 225 365 309 608 42 122 112 381 125 466 l8 50 7 -45 c4 -25 7 -112 8 -195 6 -604 94 -1189 272 -1810 45 -155 168 -528 195 -590 l18 -40 7 65 c13 130 19 874 9 1215 -20 712 -74 1115 -240 1790 -32 132 -75 296 -94 365 -19 68 -34 125 -32 127 2 2 23 -20 47 -50 24 -29 105 -119 179 -200 77 -84 138 -159 141 -175 4 -15 7 -72 8 -128 3 -230 37 -612 86 -949 113 -771 279 -1317 660 -2165 86 -191 108 -231 121 -217 17 17 -122 1114 -196 1550 -82 482 -201 892 -437 1501 -57 148 -107 274 -110 280 -3 6 78 -72 181 -174 144 -143 188 -193 195 -220 5 -19 18 -118 30 -220 40 -336 84 -570 171 -905 148 -571 314 -966 626 -1486 92 -152 114 -180 114 -141 -1 66 -172 944 -240 1227 -76 317 -245 737 -506 1259 -47 92 -84 170 -82 171 2 1 81 -72 176 -164 l172 -166 51 -190 c76 -289 133 -477 195 -641 186 -496 365 -826 652 -1204 166 -218 252 -305 252 -254 0 29 -226 697 -295 869 -76 191 -170 384 -288 590 -93 164 -277 464 -357 585 -31 47 -60 92 -65 100 -17 29 241 -207 280 -256 22 -28 82 -106 134 -173 113 -147 426 -467 566 -578 275 -219 550 -385 865 -523 104 -46 277 -110 296 -110 14 0 14 2 0 22 -46 65 -313 352 -470 505 -361 352 -675 582 -1129 828 -171 93 -234 140 -387 286 l-95 91 55 -32 c121 -69 453 -229 580 -279 74 -29 155 -61 180 -71 39 -15 109 -37 305 -95 213 -63 683 -135 985 -151 95 -4 132 -3 125 4 -18 20 -228 133 -400 217 -587 285 -907 381 -1747 525 -131 22 -243 40 -248 40 -12 0 -312 291 -307 296 2 2 52 -17 111 -41 60 -25 115 -45 122 -45 8 0 25 -6 37 -14 55 -35 627 -213 760 -236 28 -5 95 -19 147 -30 348 -77 737 -118 1188 -127 177 -3 322 -4 322 -1 0 16 -368 172 -615 261 -544 196 -927 264 -1810 322 -132 8 -272 18 -312 21 l-71 6 -187 189 c-103 105 -185 192 -183 195 3 2 56 -13 119 -35 409 -141 912 -282 1159 -325 52 -9 131 -24 175 -32 133 -26 360 -53 535 -64 255 -15 794 -12 924 5 60 8 111 16 113 18 6 7 -385 159 -567 222 -531 181 -970 278 -1510 332 -195 19 -732 23 -940 6 -63 -6 -120 -7 -127 -4 -24 12 -457 500 -450 507 2 3 47 -8 98 -25 640 -202 1084 -293 1564 -321 310 -18 475 -12 1038 34 462 39 556 46 600 46 26 0 47 4 47 9 0 4 -24 15 -52 24 -29 8 -118 35 -198 60 -452 142 -959 258 -1380 316 -296 41 -473 53 -810 53 -337 0 -529 -12 -849 -53 l-163 -21 -35 34 c-34 32 -120 135 -247 295 -58 73 -58 75 -30 69 43 -9 297 -45 394 -57 47 -5 112 -14 145 -19 33 -4 94 -11 135 -15 41 -3 136 -14 210 -23 108 -13 221 -17 560 -17 439 0 540 6 809 52 57 9 118 13 155 10 98 -10 256 -34 326 -50 60 -14 174 -32 455 -72 61 -8 164 -19 230 -25 66 -5 143 -12 170 -15 l50 -6 -80 46 c-44 25 -191 101 -327 168 -137 66 -248 123 -248 126 0 3 32 21 71 39 47 22 94 56 145 104 40 39 74 74 74 78 0 4 -120 10 -267 14 -148 3 -366 9 -486 12 l-219 7 4 -24 c2 -17 10 -25 28 -27 14 -2 34 -7 45 -12 11 -5 67 -27 125 -48 226 -85 350 -135 350 -142 0 -9 -158 -53 -339 -94 l-144 -34 -151 28 c-130 25 -412 84 -1111 233 -144 30 -148 32 -105 39 211 36 555 58 933 58 301 0 317 1 317 18 0 15 -26 26 -142 60 -465 134 -862 202 -1353 233 -190 12 -894 6 -1143 -9 -105 -7 -115 -6 -131 13 -24 27 -210 290 -240 338 l-23 38 38 -6 c22 -3 55 -10 74 -15 54 -15 282 -57 405 -75 61 -8 117 -18 125 -20 8 -2 137 -18 285 -34 393 -44 799 -51 1200 -22 160 12 362 28 450 37 258 24 630 53 770 59 162 7 278 16 273 20 -2 2 -89 29 -194 59 -460 131 -866 197 -1349 218 -418 18 -697 1 -1885 -117 l-245 -25 -17 23 c-30 38 -200 308 -196 311 4 4 191 -18 278 -33 36 -6 191 -23 345 -37 252 -24 324 -27 720 -28 397 -1 460 1 645 22 471 53 848 118 1263 218 82 20 145 40 140 44 -9 8 -220 48 -428 79 -574 89 -1200 95 -1790 20 -340 -43 -638 -90 -1018 -160 -121 -22 -220 -39 -222 -37 -22 26 -285 462 -281 466 3 3 46 -5 95 -17 49 -12 118 -26 153 -31 34 -4 128 -20 208 -35 366 -65 969 -88 1345 -51 399 40 725 96 1085 187 180 45 387 107 366 108 -5 1 -61 10 -125 21 -131 22 -410 53 -641 71 -226 18 -780 15 -1045 -5 -362 -27 -1280 -122 -1465 -151 -34 -6 -36 -4 -77 62 -23 37 -66 112 -97 166 l-56 99 63 -7 c34 -4 96 -13 137 -21 211 -40 611 -61 860 -45 401 26 723 81 1415 241 145 33 336 70 366 70 65 0 21 18 -108 43 -387 77 -767 108 -1068 88 -199 -14 -323 -32 -690 -100 -148 -28 -331 -62 -405 -76 -320 -58 -576 -106 -595 -111 -18 -4 -34 20 -120 178 -55 101 -175 334 -268 518 -92 184 -177 343 -189 353 -23 20 -35 21 -63 5z m1945 -3008 c19 -6 159 -40 310 -76 151 -36 309 -73 350 -84 70 -17 353 -80 428 -95 18 -4 31 -9 29 -11 -2 -3 -103 -25 -223 -49 -121 -24 -300 -65 -399 -90 -99 -26 -190 -49 -202 -52 -18 -4 -43 23 -160 177 -76 100 -155 206 -176 236 -37 52 -38 54 -15 54 13 0 39 -5 58 -10z m387 -771 l130 -157 -9 -68 c-11 -77 -50 -206 -115 -374 -58 -151 -154 -370 -162 -370 -3 0 0 82 7 183 9 123 12 307 9 570 -3 214 -1 385 3 380 4 -4 66 -78 137 -164z m283 -328 c12 -24 14 -121 1 -121 -4 0 -12 32 -18 70 -9 70 -3 88 17 51z m-529 -1027 c-57 -325 -149 -676 -261 -994 -35 -96 -67 -188 -72 -203 -6 -15 -12 -26 -15 -24 -8 8 28 283 52 392 36 166 82 338 121 455 39 115 186 491 191 487 1 -2 -6 -52 -16 -113z">
            </path>
        </g>
    </g>
    <g id="l6O8ugNQaUe3g4dLJNSOLOq" fill="rgb(148,135,127)" style="transform: none;">
        <g style="transform: none;">
            <path id="ppkS6OCi9"
                d="M6195 6019 c-463 -8 -566 -15 -909 -64 -60 -8 -114 -15 -120 -15 -6 0 -7 -3 0 -10 5 -5 106 -30 224 -55 492 -106 1103 -234 1223 -255 l127 -23 185 42 c193 45 405 107 405 119 0 7 -215 94 -430 173 -58 22 -113 44 -122 49 -10 6 -28 10 -41 10 -13 0 -27 3 -31 7 -7 7 -97 33 -106 31 -3 -1 -185 -5 -405 -9z">
            </path>
            <path id="poBhi9ITO"
                d="M4536 5285 c-17 -13 -15 -17 35 -79 30 -35 58 -65 63 -65 11 -1 -2 85 -19 127 -15 35 -46 42 -79 17z">
            </path>
            <path id="pg3YqQ8R7"
                d="M4656 4695 c-12 -198 -22 -430 -19 -434 8 -11 13 12 23 94 15 139 23 385 13 430 -8 34 -11 22 -17 -90z">
            </path>
            <path id="pz7lLF0VB"
                d="M4204 4394 c-4 -10 -29 -67 -55 -125 -213 -471 -334 -885 -378 -1289 -22 -203 -30 -340 -20 -340 4 0 11 12 17 28 236 598 381 1132 436 1612 14 121 14 153 0 114z">
            </path>
        </g>
    </g>
</svg>