<svg xmlns="http://www.w3.org/2000/svg" viewBox="0 0 1230 1230" width="40" height="40">
    <g fill="rgb(142,97,74)">
        <path
            d="M621 1099 c-18 -51 -13 -195 9 -288 22 -92 80 -223 131 -298 73 -107 190 -209 292 -256 54 -24 63 -22 91 26 124 213 -31 551 -344 752 -63 41 -157 95 -164 95 -2 0 -9 -14 -15 -31z">
        </path>
        <path
            d="M509 1074 c-40 -24 -60 -43 -69 -66 -84 -231 -31 -492 135 -661 134 -137 342 -211 456 -163 30 13 32 15 14 22 -11 4 -44 17 -72 30 -171 74 -346 302 -400 520 -19 79 -22 282 -4 327 13 34 9 33 -60 -9z">
        </path>
    </g>
    <g fill="rgb(61,32,0)">
        <path
            d="M308 930 c-157 -140 -262 -364 -243 -520 8 -66 38 -140 69 -169 l23 -21 44 32 c59 42 174 159 193 196 14 27 13 34 -16 108 -28 69 -32 94 -35 199 -3 83 0 136 10 173 8 28 13 52 13 52 -1 0 -27 -23 -58 -50z">
        </path>
        <path
            d="M365 337 c-45 -40 -101 -88 -125 -109 l-45 -36 30 -12 c18 -7 60 -10 105 -8 76 5 131 23 216 73 l41 24 -69 70 c-38 39 -70 71 -71 71 -1 -1 -38 -33 -82 -73z">
        </path>
    </g>
</svg>